<?xml version="1.0" encoding="UTF-8"?>
<svg width="46px" height="46px" viewBox="0 0 46 46" version="1.1" xmlns="http://www.w3.org/2000/svg" xmlns:xlink="http://www.w3.org/1999/xlink">
    <!-- Generator: sketchtool 52.5 (67469) - http://www.bohemiancoding.com/sketch -->
    <title>8CB3CB02-5D49-44CB-A465-7CFF107DA14E</title>
    <desc>Created with sketchtool.</desc>
    <g id="Page-1" stroke="none" stroke-width="1" fill="none" fill-rule="evenodd">
        <g id="BRTMR_&amp;_VRFRN_landing_page" transform="translate(-62.000000, -154.000000)" stroke="#008188" stroke-width="4">
            <g id="Enter-pic" transform="translate(63.000000, 155.000000)">
                <path d="M42.4163,21.7003 C42.4163,33.1413 33.1413,42.4163 21.7003,42.4163 C10.2593,42.4163 0.9843,33.1413 0.9843,21.7003 C0.9843,10.2593 10.2593,0.9843 21.7003,0.9843 C33.1413,0.9843 42.4163,10.2593 42.4163,21.7003 Z" id="Stroke-1"></path>
                <path d="M31.2029,18.6773 C31.2029,23.9253 26.9489,28.1793 21.7009,28.1793 C16.4519,28.1793 12.1979,23.9253 12.1979,18.6773 C12.1979,13.4293 16.4519,9.1753 21.7009,9.1753 C26.9489,9.1753 31.2029,13.4293 31.2029,18.6773 Z" id="Stroke-3"></path>
                <path d="M21.7004,42.4161 C27.1544,42.4161 32.0994,40.2891 35.7994,36.8431 L35.7994,33.6851 C35.7994,29.9661 32.7564,26.9241 29.0384,26.9241 L26.4084,26.9241 C25.0194,27.7191 23.4154,28.1801 21.7004,28.1801 C19.9854,28.1801 18.3804,27.7191 16.9914,26.9241 L14.3624,26.9241 C10.6434,26.9241 7.6014,29.9661 7.6014,33.6851 L7.6014,36.8431 C11.3014,40.2891 16.2454,42.4161 21.7004,42.4161 Z" id="Stroke-5"></path>
            </g>
        </g>
    </g>
</svg>