<?xml version="1.0" encoding="UTF-8"?>
<svg width="40px" height="40px" viewBox="0 0 40 40" version="1.1" xmlns="http://www.w3.org/2000/svg" xmlns:xlink="http://www.w3.org/1999/xlink">
    <!-- Generator: sketchtool 52.5 (67469) - http://www.bohemiancoding.com/sketch -->
    <title>F6A7DB71-427E-4BC0-B3DA-6E9EA28AFA3F</title>
    <desc>Created with sketchtool.</desc>
    <defs>
        <polygon id="path-1" points="0 0 40 0 40 40 0 40"></polygon>
    </defs>
    <g id="Page-1" stroke="none" stroke-width="1" fill="none" fill-rule="evenodd">
        <g id="BRTMR_&amp;_VRFRN_mail_about" transform="translate(-506.000000, -1744.000000)">
            <g id="Group-3-Copy" transform="translate(506.000000, 1744.000000)">
                <mask id="mask-2" fill="white">
                    <use xlink:href="#path-1"></use>
                </mask>
                <g id="Clip-2"></g>
                <path d="M28.7810138,25.2961601 C28.7810138,22.6834886 28.6068487,20.6969416 26.2716605,19.7907571 C28.2227686,18.3629551 28.2576017,16.8989423 28.2576017,15.7145313 L28.2576017,14.5296618 C28.0486035,10.5918618 26.7254066,9.09393012 22.1609045,9.09393012 C17.597319,9.09393012 16.2732055,10.5918618 16.0637489,14.5296618 L16.0637489,15.7145313 C16.0637489,16.8989423 16.098582,18.3629551 18.0496901,19.7907571 C15.7154186,20.6969416 15.5412535,22.6834886 15.5412535,25.2961601 C15.5412535,29.1638305 16.8997417,31.080248 22.1609045,31.1847548 C27.4216089,31.080248 28.7810138,29.1638305 28.7810138,25.2961601 Z M12.9686507,10.696827 C12.9686507,9.68659402 12.3411978,9.47712194 11.1220417,9.47712194 L7.95131918,9.47712194 C6.7326214,9.47712194 6.10471017,9.68659402 6.10471017,10.696827 L6.10471017,11.8464024 C6.10471017,12.8570937 6.7326214,13.0656491 7.95131918,13.0656491 L8.68281285,13.0656491 C9.13610059,13.0656491 9.34464045,13.3104152 9.34464045,14.0066692 L9.34464045,29.0593237 C9.34464045,30.2785704 9.55409697,30.9056115 10.5647132,30.9056115 L11.748578,30.9056115 C12.7591942,30.9056115 12.9686507,30.2785704 12.9686507,29.0593237 L12.9686507,10.696827 Z M36.9337766,18.2226959 L36.9337766,16.5849634 C36.9337766,15.3661751 36.7591531,14.7386756 35.7141621,14.7386756 L34.6687128,14.7386756 C33.6237219,14.7386756 33.4495567,15.3661751 33.4495567,16.5849634 L33.4495567,18.2226959 L31.8119459,18.2226959 C30.5927898,18.2226959 29.9653369,18.396874 29.9653369,19.4424009 L29.9653369,20.5575991 C29.9653369,21.6026677 30.5927898,21.7773041 31.8119459,21.7773041 L33.4495567,21.7773041 L33.4495567,23.4150366 C33.4495567,24.6342833 33.6237219,25.2613244 34.6687128,25.2613244 L35.7141621,25.2613244 C36.7591531,25.2613244 36.9337766,24.6342833 36.9337766,23.4150366 L36.9337766,21.7773041 L39.268048,21.7773041 C39.7208774,21.7773041 39.9647086,22.0211535 40,22.4740165 L40,27.7699474 C40,29.0593237 39.6163783,30.034721 38.7102612,30.9056115 L30.9411201,38.6757881 C30.0345446,39.5819726 29.0243867,40 27.7708559,40 L12.2311988,40 C10.9767513,40 9.9665934,39.5819726 9.06093457,38.6757881 L1.29133518,30.9056115 C0.385676359,29.9998854 -0.0332366798,29.0593237 0.00205468126,27.7699474 L0.00205468126,12.4042307 C0.00205468126,11.1153128 0.420509391,9.99965623 1.36145958,9.0590945 L9.26993276,1.04506858 C10.0715508,0.243849336 11.0817087,0 12.2311988,0 L27.7708559,0 C28.9203459,0 29.9305039,0.243849336 30.7321219,1.04506858 L38.6410534,9.0590945 C39.5462539,9.99965623 40,11.1153128 40,12.4042307 L40,17.4214766 C40,17.9440109 39.7552521,18.2226959 39.268048,18.2226959 L36.9337766,18.2226959 Z M22.1609045,21.6026677 C19.9311321,21.6026677 19.1295141,22.6129006 19.1295141,24.8084614 C19.1295141,27.0040221 19.9311321,27.8744543 22.1609045,27.8744543 C24.3906768,27.8744543 25.1922949,27.0040221 25.1922949,24.8084614 C25.1922949,22.6129006 24.3906768,21.6026677 22.1609045,21.6026677 Z M19.4783027,15.3308811 C19.4783027,12.9964362 20.2450877,12.2997238 22.1609045,12.2997238 C24.0771795,12.2997238 24.8439646,12.9964362 24.8439646,15.3308811 C24.8439646,17.5956547 24.0771795,18.3629551 22.1609045,18.3629551 C20.2450877,18.3629551 19.4783027,17.5956547 19.4783027,15.3308811 Z" id="Fill-1" fill="#4A4A4A" mask="url(#mask-2)"></path>
            </g>
        </g>
    </g>
</svg>