<?xml version="1.0" encoding="UTF-8"?>
<svg width="110px" height="24px" viewBox="0 0 110 24" version="1.1" xmlns="http://www.w3.org/2000/svg" xmlns:xlink="http://www.w3.org/1999/xlink">
    <!-- Generator: sketchtool 52.5 (67469) - http://www.bohemiancoding.com/sketch -->
    <title>5711FE88-BE05-4AF6-8984-5B87BBE67DEB</title>
    <desc>Created with sketchtool.</desc>
    <g id="Page-1" stroke="none" stroke-width="1" fill="none" fill-rule="evenodd">
        <g id="BRTMR_&amp;_VRFRN_mail_about" transform="translate(-462.000000, -18.000000)">
            <g id="LogoMyVrachi" transform="translate(462.000000, 18.000000)">
                <path d="M91.6252822,15.3224411 C91.6252822,16.3250205 91.3179781,16.5 90.3717586,16.5 C89.4496263,16.5 89.1422122,16.3250205 89.1422122,15.3224411 C89.1422122,14.4018731 89.4496263,14.25 90.3717586,14.25 C91.3179781,14.25 91.6252822,14.4018731 91.6252822,15.3224411" id="Fill-1" fill="#008188"></path>
                <path d="M9.1724597,0 L7.97430123,0 C6.86849755,0 5.97294603,0.800672389 5.97294603,1.78888658 L5.97294603,5.93430147 L1.750168,5.93430147 C0.78334267,5.93430147 0,6.84966507 0,7.98004621 L0,9.20471128 C0,10.3348644 0.78334267,11.25 1.750168,11.25 L11.1738149,11.25 L11.1738149,1.78888658 C11.1738149,0.800672389 10.2774826,0 9.1724597,0" id="Fill-2" fill="#DB3E37"></path>
                <path d="M22.3356108,12.75 L12.9119639,12.75 L12.9119639,22.2375202 C12.9119639,23.2105618 13.8084077,24 14.913096,24 L16.1115891,24 C17.2169466,24 18.1133904,23.2105618 18.1133904,22.2375202 L18.1133904,17.9869063 L22.3356108,17.9869063 C23.3016553,17.9869063 24.0857788,17.0841618 24.0857788,15.9723229 L24.0857788,14.7650326 C24.0857788,13.6517338 23.3016553,12.75 22.3356108,12.75" id="Fill-3" fill="#008188"></path>
                <path d="M11.1708034,12.75 L1.7494813,12.75 C0.783446389,12.75 0,13.6513836 0,14.7648047 L0,15.9722275 C0,17.0849747 0.783446389,17.9863583 1.7494813,17.9863583 L5.97244026,17.9863583 L5.97244026,22.2381128 C5.97244026,23.2120474 6.86764822,24 7.9735524,24 L9.17236814,24 C10.27738,24 11.1738149,23.2120474 11.1738149,22.2381128 L11.1738149,12.75 L11.1708034,12.75" id="Fill-4" fill="#008188"></path>
                <path d="M22.3361752,5.93417493 L18.1133674,5.93417493 L18.1133674,1.78892807 C18.1133674,0.800753937 17.2175391,0 16.1117807,0 L14.9135505,0 C13.8077921,0 12.9119639,0.800753937 12.9119639,1.78892807 L12.9119639,11.25 L22.3361752,11.25 C23.3022776,11.25 24.0857788,10.3345595 24.0857788,9.20433818 L24.0857788,7.97972275 C24.0857788,6.84961543 23.3022776,5.93417493 22.3361752,5.93417493" id="Fill-5" fill="#008188"></path>
                <path d="M37.6703543,8 L40.4740406,8 L40.4740406,16.25 L38.3221555,16.25 L38.3221555,11.254797 C37.8330554,12.3679718 37.0070345,14.4630615 36.5761923,15.6342611 L34.7960055,15.6342611 C34.4123455,14.509594 33.6435856,12.308257 33.1790735,11.254797 L33.1790735,16.25 L31.0383747,16.25 L31.0383747,8 L33.9697631,8 C34.5408228,9.14877839 35.31944,10.9952064 35.8659118,12.3679718 C36.3784922,10.9824748 37.1461445,9.1239911 37.6703543,8" id="Fill-6" fill="#008188"></path>
                <path d="M45.9879125,11.9488471 C47.1152607,11.9488471 47.8485628,12.6851375 47.8485628,14.0041485 C47.8485628,15.5216224 47.1152607,16 45.9879125,16 L41.9638826,16 L41.9638826,10 L44.0921744,10 L44.0921744,11.9488471 L45.9879125,11.9488471 Z M45.3012097,14.5405315 C45.5106297,14.5405315 45.6618283,14.3544032 45.6618283,14.0392629 C45.6618283,13.6883415 45.4992289,13.5128808 45.2548318,13.5128808 L44.0921744,13.5128808 L44.0921744,14.5405315 L45.3012097,14.5405315 Z M48.2780288,16 L50.4063205,16 L50.4063205,10 L48.2780288,10 L48.2780288,16 Z" id="Fill-7" fill="#008188"></path>
                <path d="M59.5936795,14.0605323 C59.5936795,15.7532849 58.7385115,16.25 57.433608,16.25 L52.6410835,16.25 L52.6410835,8 L57.433608,8 C59.0396177,8 59.4669268,8.60354035 59.4669268,9.98843785 C59.4669268,11.1840247 59.1543876,11.8231735 57.7106389,11.9422814 C59.2472809,12.0125968 59.5936795,12.7113559 59.5936795,14.0605323 Z M54.846887,11.0897074 L56.7526837,11.0897074 C56.9490238,11.0897074 57.0878691,11.0300971 57.0878691,10.5206487 C57.0878691,10.0359909 56.9490238,9.93006706 56.7526837,9.93006706 L54.846887,9.93006706 L54.846887,11.0897074 Z M56.7874225,14.3212852 C57.0297146,14.3212852 57.2025291,14.1789641 57.2025291,13.6466406 C57.2025291,13.0780326 57.0185014,12.9244431 56.740701,12.9244431 L54.846887,12.9244431 L54.846887,14.3212852 L56.7874225,14.3212852 Z" id="Fill-8" fill="#008188"></path>
                <path d="M60.8352144,10.4125429 C61.4899391,10.176756 62.6827207,10 63.7075367,10 C65.8532951,10 66.7945824,10.7431608 66.7945824,13.2179694 C66.7945824,15.6589979 65.6390257,16.401822 64.2559212,16.401822 C63.7439671,16.401822 63.3738757,16.3077766 63.0162682,16.2014985 L63.0162682,18.5 L60.8352144,18.5 L60.8352144,10.4125429 Z M63.0162682,14.3383219 C63.0162682,14.5032942 63.3146338,14.6565949 63.7323911,14.6565949 C64.4110622,14.6565949 64.6252181,14.3152033 64.6252181,13.2657777 C64.6252181,11.99291 64.3992592,11.7810272 63.7075367,11.7810272 C63.4814643,11.7810272 63.1589253,11.8272643 63.0162682,11.8865197 L63.0162682,14.3383219 Z" id="Fill-9" fill="#008188"></path>
                <path d="M73.2505643,16.021169 C72.3826126,16.3207517 71.1446234,16.5 70.2044084,16.5 C68.0985807,16.5 67.5395034,16.0814502 67.5395034,14.4642275 C67.5395034,12.7413702 68.4314673,12.4660595 69.9190932,12.4660595 C70.3111043,12.4660595 70.7878378,12.5258849 71.1920815,12.6091846 C71.1920815,11.9637541 71.073153,11.7951035 69.9425391,11.7951035 C69.1936292,11.7951035 68.5270632,11.9034729 68.0037777,12.0465981 L67.6935441,10.3349082 C68.4789255,10.1431251 69.5847342,10 70.5131695,10 C72.3576943,10 73.2505643,10.5864028 73.2505643,12.3935853 L73.2505643,16.021169 Z M71.1920815,14.7880823 L71.1920815,13.9619221 C70.9783499,13.9141758 70.703795,13.9024386 70.4183665,13.9024386 C69.9425391,13.9024386 69.7644862,13.9619221 69.7644862,14.4055416 C69.7644862,14.8358286 69.8591759,14.9195842 70.3825747,14.9195842 C70.6563368,14.9195842 70.9657775,14.8717238 71.1920815,14.7880823 Z" id="Fill-10" fill="#008188"></path>
                <path d="M74.2437923,10 L76.3629293,10 L76.3629293,11.5883627 C76.3629293,12.3233764 76.8043794,12.4511565 77.1981887,12.4511565 C77.5335496,12.4511565 77.8357163,12.380933 77.8357163,12.2303746 L77.8357163,10 L79.9548533,10 L79.9548533,16 L77.8357163,16 L77.8357163,13.9920739 C77.3715485,14.1668549 76.769531,14.330858 76.294225,14.330858 C75.1236047,14.330858 74.2437923,13.9692957 74.2437923,11.6810311 L74.2437923,10" id="Fill-11" fill="#008188"></path>
                <path d="M83.8479458,12.7661623 C84.3552024,12.194374 85.0850284,10.8406822 85.4976509,10 L87.6523702,10 L87.6523702,16 L85.4976509,16 L85.4976509,13.3620623 C84.9902822,14.3545251 84.4136198,15.2524306 83.8479458,16 L81.6930023,16 L81.6930023,10 L83.8479458,10 L83.8479458,12.7661623" id="Fill-12" fill="#008188"></path>
                <path d="M93.1151242,16.25 L93.1151242,8 L97.8934107,8 C99.4929669,8 100.06772,9.18426929 100.06772,10.9712078 C100.06772,12.5333707 99.3318826,13.8242253 97.8934107,13.8242253 L95.3143085,13.8242253 L95.3143085,16.25 L93.1151242,16.25 Z M97.0410884,11.9892896 C97.3742151,11.9892896 97.6617561,11.7761188 97.6617561,10.9712078 C97.6617561,10.1783524 97.4329506,9.92969081 97.0522657,9.92969081 L95.3143085,9.92969081 L95.3143085,11.9892896 L97.0410884,11.9892896 Z" id="Fill-13" fill="#008188"></path>
                <path d="M106.446712,8 L106.446712,8.86406252 C109.188635,9.02957404 110,9.90603021 110,12.1071419 C110,14.3207599 109.177291,15.1840337 106.446712,15.3511226 L106.446712,16.25 L104.237182,16.25 L104.237182,15.3619389 C101.530171,15.1964274 100.812641,14.3323648 100.812641,12.1071419 C100.812641,9.89408724 101.530171,9.01796908 104.237182,8.86406252 L104.237182,8 L106.446712,8 Z M103.056974,12.1071419 C103.056974,13.1727702 103.230767,13.480696 104.237182,13.5271158 L104.237182,10.7104906 C103.218652,10.7462068 103.056974,11.0300213 103.056974,12.1071419 Z M107.707208,12.1071419 C107.707208,11.0187544 107.581764,10.7346018 106.446712,10.6988856 L106.446712,13.5271158 C107.581764,13.4930896 107.707208,13.1959801 107.707208,12.1071419 Z" id="Fill-14" fill="#008188"></path>
            </g>
        </g>
    </g>
</svg>