<?xml version="1.0" encoding="UTF-8"?>
<svg width="22px" height="22px" viewBox="0 0 22 22" version="1.1" xmlns="http://www.w3.org/2000/svg" xmlns:xlink="http://www.w3.org/1999/xlink">
    <!-- Generator: sketchtool 52.5 (67469) - http://www.bohemiancoding.com/sketch -->
    <title>5B2D3614-C1C1-41E5-9B8D-778C12CC73ED</title>
    <desc>Created with sketchtool.</desc>
    <g id="Page-1" stroke="none" stroke-width="1" fill="none" fill-rule="evenodd">
        <g id="BRTMR_&amp;_VRFRN_mail_about" transform="translate(-292.000000, -578.000000)" fill="#252761" fill-rule="nonzero">
            <g id="pencil" transform="translate(292.000000, 578.000000)">
                <path d="M10.9997067,0 C4.92480617,0 0,4.92514 0,10.99978 C0,17.07442 4.92480617,22 10.9997067,22 C17.0746072,22 22,17.0747133 22,10.99978 C22,4.92484667 17.0746072,0 10.9997067,0 Z M16.2288482,7.91596667 L15.1840612,8.96074667 L13.057307,6.83415333 L12.2504883,7.64096667 L14.3772425,9.76770667 L9.16086107,14.9836133 L7.03425356,12.85724 L6.22743485,13.6640533 L8.35404236,15.7906467 L7.83425223,16.3104333 L7.82435216,16.3005333 C7.76671178,16.3954267 7.67299115,16.4646533 7.56167041,16.4893667 L5.57850386,16.9315667 C5.54880366,16.93824 5.51859012,16.9414667 5.48874326,16.9414667 C5.38050254,16.9414667 5.27534184,16.89886 5.19738798,16.8206867 C5.09736065,16.7210267 5.05570704,16.5770733 5.08650724,16.4391333 L5.52849019,14.4565667 C5.55342369,14.34532 5.62279749,14.25138 5.71754478,14.1938867 L5.70749805,14.18384 L14.1020207,5.78900667 C14.2250748,5.66617333 14.4249828,5.66617333 14.548037,5.78937333 L16.2289949,7.46995333 C16.352049,7.59300667 16.352049,7.79291333 16.2288482,7.91596667 Z" id="Shape"></path>
            </g>
        </g>
    </g>
</svg>